{
  "asset": {
    "version": "2.0",
    "generator": "THREE.GLTFExporter"
  },
  "scenes": [
    {
      "name": "Scene",
      "nodes": [
        10
      ]
    }
  ],
  "scene": 0,
  "nodes": [
    {
      "matrix": [
        1,
        0,
        0,
        0,
        0,
        1,
        0,
        0,
        0,
        0,
        1,
        0,
        -4.335898354700529,
        0,
        0,
        1
      ],
      "name": "buffer-0-mesh-0_0",
      "extras": {
        "name": "buffer-0-mesh-0_0"
      },
      "mesh": 0
    },
    {
      "matrix": [
        1.3,
        0,
        0,
        0,
        0,
        1.3,
        0,
        0,
        0,
        0,
        1.2,
        0,
        0,
        0,
        0,
        1
      ],
      "name": "buffer-0-mesh-0_1_1",
      "extras": {
        "name": "buffer-0-mesh-0_1_1"
      },
      "mesh": 1
    },
    {
      "name": "buffer-0-mesh-0_2_2",
      "extras": {
        "name": "buffer-0-mesh-0_2_2"
      },
      "mesh": 2
    },
    {
      "name": "node-0",
      "extras": {
        "name": "node-0"
      },
      "children": [
        0,
        1,
        2
      ]
    },
    {
      "matrix": [
        1,
        0,
        0,
        0,
        0,
        1,
        0,
        0,
        0,
        0,
        1,
        0,
        17.26813389339478,
        -18.27692218582033,
        -5.255253119848964,
        1
      ],
      "children": [
        3
      ]
    },
    {
      "matrix": [
        1,
        0,
        0,
        0,
        0,
        1,
        0,
        0,
        0,
        0,
        1,
        0,
        0,
        18.27692218582033,
        0,
        1
      ],
      "extras": {
        "isTransformNode": 1
      },
      "children": [
        4
      ]
    },
    {
      "children": [
        5
      ]
    },
    {
      "matrix": [
        0.025,
        0,
        0,
        0,
        0,
        0.025,
        0,
        0,
        0,
        0,
        0.025,
        0,
        0,
        0,
        0,
        1
      ],
      "name": "scene-0",
      "extras": {
        "name": "scene-0",
        "GOOGLE_camera_index": {
          "cameraIndex": 0,
          "nodeIndex": 4
        },
        "GOOGLE_geometry_data": {
          "stats": {
            "centroid": [
              -17.64673410800413,
              18.75618392233324,
              2.838959662524146
            ],
            "radius": 45.50879026694134,
            "stdev": 25.23733219802929
          },
          "visualCenterPoint": [
            -17.26813389339478,
            18.27692218582033,
            5.255253119848964
          ]
        },
        "gltfExtensions": {
          "GOOGLE_backgrounds": {
            "color": [
              0.01176470588235294,
              0.6627450980392157,
              0.9568627450980393
            ]
          },
          "GOOGLE_camera_settings": {
            "mode": "movableOrbit",
            "pivot": [
              -17.27052952815657,
              18.2754046519013,
              5.256071100706208
            ]
          },
          "GOOGLE_lights_image_based": {
            "light": 0
          }
        }
      },
      "children": [
        6
      ]
    },
    {
      "matrix": [
        1,
        0,
        0,
        0,
        0,
        1,
        0,
        0,
        0,
        0,
        1,
        0,
        0,
        0,
        -1,
        1
      ]
    },
    {
      "matrix": [
        1,
        0,
        0,
        0,
        0,
        1,
        0,
        0,
        0,
        0,
        1,
        0,
        5,
        10,
        7.5,
        1
      ],
      "name": "DirectionalLight",
      "extras": {
        "name": "DirectionalLight"
      },
      "children": [
        8
      ],
      "extensions": {
        "KHR_lights_punctual": {
          "light": 0
        }
      }
    },
    {
      "name": "3.glb",
      "children": [
        7,
        9
      ]
    }
  ],
  "bufferViews": [
    {
      "buffer": 0,
      "byteOffset": 0,
      "byteLength": 768,
      "target": 34962,
      "byteStride": 12
    },
    {
      "buffer": 0,
      "byteOffset": 768,
      "byteLength": 768,
      "target": 34962,
      "byteStride": 12
    },
    {
      "buffer": 0,
      "byteOffset": 1536,
      "byteLength": 720,
      "target": 34963
    },
    {
      "buffer": 0,
      "byteOffset": 2256,
      "byteLength": 177972,
      "target": 34962,
      "byteStride": 12
    },
    {
      "buffer": 0,
      "byteOffset": 180228,
      "byteLength": 177972,
      "target": 34962,
      "byteStride": 12
    },
    {
      "buffer": 0,
      "byteOffset": 358200,
      "byteLength": 177264,
      "target": 34963
    },
    {
      "buffer": 0,
      "byteOffset": 535464,
      "byteLength": 86688,
      "target": 34962,
      "byteStride": 12
    },
    {
      "buffer": 0,
      "byteOffset": 622152,
      "byteLength": 86688,
      "target": 34962,
      "byteStride": 12
    },
    {
      "buffer": 0,
      "byteOffset": 708840,
      "byteLength": 57792,
      "target": 34962,
      "byteStride": 8
    },
    {
      "buffer": 0,
      "byteOffset": 766632,
      "byteLength": 78624,
      "target": 34963
    }
  ],
  "buffers": [
    {
      "byteLength": 845256,
      "uri": "data:application/octet-stream;base64,"
    }
  ],
  "accessors": [
    {
      "bufferView": 0,
      "componentType": 5126,
      "count": 64,
      "max": [
        0.8962923288345337,
        0.7538281083106995,
        0.7578207850456238
      ],
      "min": [
        -0.8962923288345337,
        -0.8202560544013977,
        -0.6762897968292236
      ],
      "type": "VEC3"
    },
    {
      "bufferView": 1,
      "componentType": 5126,
      "count": 64,
      "max": [
        13.871100425720215,
        6.372700214385986,
        22.30590057373047
      ],
      "min": [
        -48.42789840698242,
        -0.005499999970197678,
        -8.827400207519531
      ],
      "type": "VEC3"
    },
    {
      "bufferView": 2,
      "componentType": 5123,
      "count": 360,
      "max": [
        63
      ],
      "min": [
        0
      ],
      "type": "SCALAR"
    },
    {
      "bufferView": 3,
      "componentType": 5126,
      "count": 14831,
      "max": [
        0.999997079372406,
        1,
        0.9999985098838806
      ],
      "min": [
        -0.9999972581863403,
        -0.9999880194664001,
        -0.9999839067459106
      ],
      "type": "VEC3"
    },
    {
      "bufferView": 4,
      "componentType": 5126,
      "count": 14831,
      "max": [
        15.39009952545166,
        32.49530029296875,
        22.000499725341797
      ],
      "min": [
        -49.59550094604492,
        6.102799892425537,
        -12.127900123596191
      ],
      "type": "VEC3"
    },
    {
      "bufferView": 5,
      "componentType": 5123,
      "count": 88632,
      "max": [
        14830
      ],
      "min": [
        0
      ],
      "type": "SCALAR"
    },
    {
      "bufferView": 6,
      "componentType": 5126,
      "count": 7224,
      "max": [
        1,
        0.9999991655349731,
        0.9999740719795227
      ],
      "min": [
        -1,
        -0.9999911189079285,
        -0.9999730587005615
      ],
      "type": "VEC3"
    },
    {
      "bufferView": 7,
      "componentType": 5126,
      "count": 7224,
      "max": [
        15.645600318908691,
        32.58549880981445,
        22.340299606323242
      ],
      "min": [
        -49.59600067138672,
        10.239100456237793,
        -7.470399856567383
      ],
      "type": "VEC3"
    },
    {
      "bufferView": 8,
      "componentType": 5126,
      "count": 7224,
      "max": [
        1,
        0
      ],
      "min": [
        0,
        -1
      ],
      "type": "VEC2"
    },
    {
      "bufferView": 9,
      "componentType": 5123,
      "count": 39312,
      "max": [
        7223
      ],
      "min": [
        0
      ],
      "type": "SCALAR"
    }
  ],
  "materials": [
    {
      "pbrMetallicRoughness": {
        "baseColorFactor": [
          0.5879999995231628,
          0.5879999995231628,
          0.5879999995231628,
          1
        ],
        "metallicFactor": 1,
        "roughnessFactor": 0
      },
      "doubleSided": true,
      "name": "Material__3"
    },
    {
      "pbrMetallicRoughness": {
        "baseColorFactor": [
          1,
          0,
          0,
          1
        ],
        "metallicFactor": 0,
        "roughnessFactor": 1
      },
      "doubleSided": true,
      "name": "Material__2"
    }
  ],
  "meshes": [
    {
      "primitives": [
        {
          "mode": 4,
          "attributes": {
            "NORMAL": 0,
            "POSITION": 1
          },
          "indices": 2,
          "material": 0
        }
      ]
    },
    {
      "primitives": [
        {
          "mode": 4,
          "attributes": {
            "NORMAL": 3,
            "POSITION": 4
          },
          "indices": 5,
          "material": 1
        }
      ]
    },
    {
      "primitives": [
        {
          "mode": 4,
          "attributes": {
            "NORMAL": 6,
            "POSITION": 7,
            "TEXCOORD_0": 8
          },
          "indices": 9,
          "material": 1
        }
      ]
    }
  ],
  "extensions": {
    "KHR_lights_punctual": {
      "lights": [
        {
          "name": "DirectionalLight",
          "color": [
            1,
            1,
            1
          ],
          "intensity": 1,
          "type": "directional"
        }
      ]
    }
  },
  "extensionsUsed": [
    "KHR_lights_punctual"
  ]
}