{
  "asset": {
    "version": "2.0",
    "generator": "THREE.GLTFExporter"
  },
  "scenes": [
    {
      "name": "Scene",
      "nodes": [
        7
      ]
    }
  ],
  "scene": 0,
  "nodes": [
    {
      "name": "node-0",
      "extras": {
        "name": "node-0"
      },
      "mesh": 0
    },
    {
      "matrix": [
        1,
        0,
        0,
        0,
        0,
        1,
        0,
        0,
        0,
        0,
        1,
        0,
        -5.21667436705606,
        -20.17669398680756,
        3.226126817675297,
        1
      ],
      "children": [
        0
      ]
    },
    {
      "matrix": [
        1,
        0,
        0,
        0,
        0,
        1,
        0,
        0,
        0,
        0,
        1,
        0,
        0,
        20.17669398680756,
        0,
        1
      ],
      "extras": {
        "isTransformNode": 1
      },
      "children": [
        1
      ]
    },
    {
      "children": [
        2
      ]
    },
    {
      "matrix": [
        0.025,
        0,
        0,
        0,
        0,
        0.025,
        0,
        0,
        0,
        0,
        0.025,
        0,
        0,
        0,
        0,
        1
      ],
      "name": "scene-0",
      "extras": {
        "name": "scene-0",
        "GOOGLE_camera_index": {
          "cameraIndex": 0,
          "nodeIndex": 4
        },
        "GOOGLE_geometry_data": {
          "stats": {
            "centroid": [
              5.354572197542753,
              21.55799187702985,
              -7.324502710847674
            ],
            "radius": 28.09781496333073,
            "stdev": 18.53410651024333
          },
          "visualCenterPoint": [
            5.21667436705606,
            20.17669398680756,
            -3.226126817675297
          ]
        },
        "gltfExtensions": {
          "GOOGLE_backgrounds": {
            "color": [
              0,
              0,
              0
            ]
          },
          "GOOGLE_camera_settings": {
            "mode": "movableOrbit",
            "pivot": [
              5.217014319598697,
              20.17476644481744,
              -3.226734502505295
            ]
          },
          "GOOGLE_lights_image_based": {
            "light": 0
          }
        }
      },
      "children": [
        3
      ]
    },
    {
      "matrix": [
        1,
        0,
        0,
        0,
        0,
        1,
        0,
        0,
        0,
        0,
        1,
        0,
        0,
        0,
        -1,
        1
      ]
    },
    {
      "matrix": [
        1,
        0,
        0,
        0,
        0,
        1,
        0,
        0,
        0,
        0,
        1,
        0,
        5,
        10,
        7.5,
        1
      ],
      "name": "DirectionalLight",
      "extras": {
        "name": "DirectionalLight"
      },
      "children": [
        5
      ],
      "extensions": {
        "KHR_lights_punctual": {
          "light": 0
        }
      }
    },
    {
      "name": "2.glb",
      "children": [
        4,
        6
      ]
    }
  ],
  "bufferViews": [
    {
      "buffer": 0,
      "byteOffset": 0,
      "byteLength": 224784,
      "target": 34962,
      "byteStride": 12
    },
    {
      "buffer": 0,
      "byteOffset": 224784,
      "byteLength": 224784,
      "target": 34962,
      "byteStride": 12
    },
    {
      "buffer": 0,
      "byteOffset": 449568,
      "byteLength": 222744,
      "target": 34963
    }
  ],
  "buffers": [
    {
      "byteLength": 672312,
      "uri": "data:application/octet-stream;base64,"
    }
  ],
  "accessors": [
    {
      "bufferView": 0,
      "componentType": 5126,
      "count": 18732,
      "max": [
        0.9998319745063782,
        0.9999423623085022,
        1
      ],
      "min": [
        -0.9998319745063782,
        -1,
        -1
      ],
      "type": "VEC3"
    },
    {
      "bufferView": 1,
      "componentType": 5126,
      "count": 18732,
      "max": [
        22.221900939941406,
        39.49720001220703,
        12.478899955749512
      ],
      "min": [
        -11.587300300598145,
        -0.6172000169754028,
        -16.845399856567383
      ],
      "type": "VEC3"
    },
    {
      "bufferView": 2,
      "componentType": 5123,
      "count": 111372,
      "max": [
        18731
      ],
      "min": [
        0
      ],
      "type": "SCALAR"
    }
  ],
  "materials": [
    {
      "pbrMetallicRoughness": {
        "baseColorFactor": [
          0.9686274528503418,
          0.8352941274642944,
          0.06666667014360428,
          1
        ],
        "metallicFactor": 0,
        "roughnessFactor": 0.4900000095367432
      },
      "doubleSided": true,
      "name": "__default"
    }
  ],
  "meshes": [
    {
      "primitives": [
        {
          "mode": 4,
          "attributes": {
            "NORMAL": 0,
            "POSITION": 1
          },
          "indices": 2,
          "material": 0
        }
      ]
    }
  ],
  "extensions": {
    "KHR_lights_punctual": {
      "lights": [
        {
          "name": "DirectionalLight",
          "color": [
            1,
            1,
            1
          ],
          "intensity": 1,
          "type": "directional"
        }
      ]
    }
  },
  "extensionsUsed": [
    "KHR_lights_punctual"
  ]
}