{
  "asset": {
    "version": "2.0",
    "generator": "THREE.GLTFExporter"
  },
  "scenes": [
    {
      "name": "Scene",
      "nodes": [
        9
      ]
    }
  ],
  "scene": 0,
  "nodes": [
    {
      "name": "buffer-0-mesh-0_0",
      "extras": {
        "name": "buffer-0-mesh-0_0"
      },
      "mesh": 0
    },
    {
      "name": "buffer-0-mesh-0_1_1",
      "extras": {
        "name": "buffer-0-mesh-0_1_1"
      },
      "mesh": 1
    },
    {
      "name": "node-0",
      "extras": {
        "name": "node-0"
      },
      "children": [
        0,
        1
      ]
    },
    {
      "matrix": [
        1,
        0,
        0,
        0,
        0,
        1,
        0,
        0,
        0,
        0,
        1,
        0,
        18.82452743818128,
        -19.44051405394714,
        -16.70961985765865,
        1
      ],
      "children": [
        2
      ]
    },
    {
      "matrix": [
        1,
        0,
        0,
        0,
        0,
        1,
        0,
        0,
        0,
        0,
        1,
        0,
        0,
        19.44051405394714,
        0,
        1
      ],
      "extras": {
        "isTransformNode": 1
      },
      "children": [
        3
      ]
    },
    {
      "children": [
        4
      ]
    },
    {
      "matrix": [
        0.025,
        0,
        0,
        0,
        0,
        0.025,
        0,
        0,
        0,
        0,
        0.025,
        0,
        0,
        0,
        0,
        1
      ],
      "name": "scene-0",
      "extras": {
        "name": "scene-0",
        "GOOGLE_camera_index": {
          "cameraIndex": 0,
          "nodeIndex": 4
        },
        "GOOGLE_geometry_data": {
          "stats": {
            "centroid": [
              -18.98873330227872,
              19.28605601803063,
              12.16360823423304
            ],
            "radius": 30.72992362068704,
            "stdev": 14.30614351853733
          },
          "visualCenterPoint": [
            -18.82452743818128,
            19.44051405394714,
            16.70961985765865
          ]
        },
        "gltfExtensions": {
          "GOOGLE_backgrounds": {
            "color": [
              0.6196078431372549,
              0.6196078431372549,
              0.6196078431372549
            ]
          },
          "GOOGLE_camera_settings": {
            "mode": "movableOrbit",
            "pivot": [
              -18.83582797664171,
              19.43118426393317,
              16.70825936141932
            ]
          },
          "GOOGLE_lights_image_based": {
            "light": 0
          }
        }
      },
      "children": [
        5
      ]
    },
    {
      "matrix": [
        1,
        0,
        0,
        0,
        0,
        1,
        0,
        0,
        0,
        0,
        1,
        0,
        0,
        0,
        -1,
        1
      ]
    },
    {
      "matrix": [
        1,
        0,
        0,
        0,
        0,
        1,
        0,
        0,
        0,
        0,
        1,
        0,
        5,
        10,
        7.5,
        1
      ],
      "name": "DirectionalLight",
      "extras": {
        "name": "DirectionalLight"
      },
      "children": [
        7
      ],
      "extensions": {
        "KHR_lights_punctual": {
          "light": 0
        }
      }
    },
    {
      "name": "4.glb",
      "children": [
        6,
        8
      ]
    }
  ],
  "bufferViews": [
    {
      "buffer": 0,
      "byteOffset": 0,
      "byteLength": 24312,
      "target": 34962,
      "byteStride": 12
    },
    {
      "buffer": 0,
      "byteOffset": 24312,
      "byteLength": 24312,
      "target": 34962,
      "byteStride": 12
    },
    {
      "buffer": 0,
      "byteOffset": 48624,
      "byteLength": 16208,
      "target": 34962,
      "byteStride": 8
    },
    {
      "buffer": 0,
      "byteOffset": 64832,
      "byteLength": 21120,
      "target": 34963
    },
    {
      "buffer": 0,
      "byteOffset": 85952,
      "byteLength": 32088,
      "target": 34962,
      "byteStride": 12
    },
    {
      "buffer": 0,
      "byteOffset": 118040,
      "byteLength": 32088,
      "target": 34962,
      "byteStride": 12
    },
    {
      "buffer": 0,
      "byteOffset": 150128,
      "byteLength": 21392,
      "target": 34962,
      "byteStride": 8
    },
    {
      "buffer": 0,
      "byteOffset": 171520,
      "byteLength": 31152,
      "target": 34963
    }
  ],
  "buffers": [
    {
      "byteLength": 202672,
      "uri": "data:application/octet-stream;base64,"
    }
  ],
  "accessors": [
    {
      "bufferView": 0,
      "componentType": 5126,
      "count": 2026,
      "max": [
        0.9979380965232849,
        0.9999937415122986,
        0.9959661960601807
      ],
      "min": [
        -0.9971117377281189,
        -1,
        -0.9862415790557861
      ],
      "type": "VEC3"
    },
    {
      "bufferView": 1,
      "componentType": 5126,
      "count": 2026,
      "max": [
        -6.310200214385986,
        17.111299514770508,
        28.700199127197266
      ],
      "min": [
        -31.41510009765625,
        14.750800132751465,
        4.530399799346924
      ],
      "type": "VEC3"
    },
    {
      "bufferView": 2,
      "componentType": 5126,
      "count": 2026,
      "max": [
        1.2044999599456787,
        0.20100000500679016
      ],
      "min": [
        -0.2046000063419342,
        -1.2015999555587769
      ],
      "type": "VEC2"
    },
    {
      "bufferView": 3,
      "componentType": 5123,
      "count": 10560,
      "max": [
        2025
      ],
      "min": [
        0
      ],
      "type": "SCALAR"
    },
    {
      "bufferView": 4,
      "componentType": 5126,
      "count": 2674,
      "max": [
        0.9997249245643616,
        1,
        0.9999969601631165
      ],
      "min": [
        -0.9997375011444092,
        -1,
        -0.9999967217445374
      ],
      "type": "VEC3"
    },
    {
      "bufferView": 5,
      "componentType": 5126,
      "count": 2674,
      "max": [
        -6.003399848937988,
        30.229999542236328,
        27.888700485229492
      ],
      "min": [
        -31.649799346923828,
        0.001500000013038516,
        2.449199914932251
      ],
      "type": "VEC3"
    },
    {
      "bufferView": 6,
      "componentType": 5126,
      "count": 2674,
      "max": [
        7.868199825286865,
        15.428799629211426
      ],
      "min": [
        -19.279699325561523,
        -12.662300109863281
      ],
      "type": "VEC2"
    },
    {
      "bufferView": 7,
      "componentType": 5123,
      "count": 15576,
      "max": [
        2673
      ],
      "min": [
        0
      ],
      "type": "SCALAR"
    }
  ],
  "materials": [
    {
      "pbrMetallicRoughness": {
        "metallicFactor": 0,
        "roughnessFactor": 0.9699476361274719
      },
      "doubleSided": true,
      "name": "2"
    },
    {
      "pbrMetallicRoughness": {
        "baseColorFactor": [
          0.5879999995231628,
          0.5879999995231628,
          0.5879999995231628,
          1
        ],
        "metallicFactor": 1,
        "roughnessFactor": 0
      },
      "doubleSided": true,
      "name": "1"
    }
  ],
  "meshes": [
    {
      "primitives": [
        {
          "mode": 4,
          "attributes": {
            "NORMAL": 0,
            "POSITION": 1,
            "TEXCOORD_0": 2
          },
          "indices": 3,
          "material": 0
        }
      ]
    },
    {
      "primitives": [
        {
          "mode": 4,
          "attributes": {
            "NORMAL": 4,
            "POSITION": 5,
            "TEXCOORD_0": 6
          },
          "indices": 7,
          "material": 1
        }
      ]
    }
  ],
  "extensions": {
    "KHR_lights_punctual": {
      "lights": [
        {
          "name": "DirectionalLight",
          "color": [
            1,
            1,
            1
          ],
          "intensity": 1,
          "type": "directional"
        }
      ]
    }
  },
  "extensionsUsed": [
    "KHR_lights_punctual"
  ]
}